REM DIRINDEX 1\2,1\3,1\4,1\5
REM DIRNAME cjc044,folder01,folder02,folder03,folder04
TITLE ""
FILE "1800_114.mp3" MP3
  TRACK 01 AUDIO
    TITLE "2:cjc044_3245"
    INDEX 01 00:00:00
  TRACK 02 AUDIO
    TITLE "0:"
    INDEX 01 00:01:07
  TRACK 03 AUDIO
    TITLE "3:cjc044_3246"
    INDEX 01 00:01:71
  TRACK 04 AUDIO
    TITLE "0:"
    INDEX 01 00:03:19
  TRACK 05 AUDIO
    TITLE "4:cjc044_3247"
    INDEX 01 00:04:01
  TRACK 06 AUDIO
    TITLE "0:"
    INDEX 01 00:05:16
  TRACK 07 AUDIO
    TITLE "5:cjc044_3248"
    INDEX 01 00:06:02
  TRACK 08 AUDIO
    TITLE "0:"
    INDEX 01 00:09:36
  TRACK 09 AUDIO
    TITLE "2:cjc044_3249"
    INDEX 01 00:11:23
  TRACK 10 AUDIO
    TITLE "0:"
    INDEX 01 00:12:22
  TRACK 11 AUDIO
    TITLE "3:cjc044_3250"
    INDEX 01 00:13:06
  TRACK 12 AUDIO
    TITLE "0:"
    INDEX 01 00:14:60
  TRACK 13 AUDIO
    TITLE "4:cjc044_3251"
    INDEX 01 00:15:46
  TRACK 14 AUDIO
    TITLE "0:"
    INDEX 01 00:16:48
  TRACK 15 AUDIO
    TITLE "5:cjc044_3252"
    INDEX 01 00:17:33
  TRACK 16 AUDIO
    TITLE "0:"
    INDEX 01 00:21:66
  TRACK 17 AUDIO
    TITLE "2:cjc044_3253"
    INDEX 01 00:23:50
  TRACK 18 AUDIO
    TITLE "0:"
    INDEX 01 00:24:51
  TRACK 19 AUDIO
    TITLE "3:cjc044_3254"
    INDEX 01 00:25:41
  TRACK 20 AUDIO
    TITLE "0:"
    INDEX 01 00:27:43
  TRACK 21 AUDIO
    TITLE "4:cjc044_3255"
    INDEX 01 00:28:25
  TRACK 22 AUDIO
    TITLE "0:"
    INDEX 01 00:29:27
  TRACK 23 AUDIO
    TITLE "5:cjc044_3256"
    INDEX 01 00:30:14
  TRACK 24 AUDIO
    TITLE "0:"
    INDEX 01 00:33:66
  TRACK 25 AUDIO
    TITLE "2:cjc044_3257"
    INDEX 01 00:35:49
  TRACK 26 AUDIO
    TITLE "0:"
    INDEX 01 00:36:60
  TRACK 27 AUDIO
    TITLE "3:cjc044_3258"
    INDEX 01 00:37:46
  TRACK 28 AUDIO
    TITLE "0:"
    INDEX 01 00:39:49
  TRACK 29 AUDIO
    TITLE "4:cjc044_3259"
    INDEX 01 00:40:30
  TRACK 30 AUDIO
    TITLE "0:"
    INDEX 01 00:41:42
  TRACK 31 AUDIO
    TITLE "5:cjc044_3260"
    INDEX 01 00:42:29
  TRACK 32 AUDIO
    TITLE "0:"
    INDEX 01 00:45:55
  TRACK 33 AUDIO
    TITLE "2:cjc044_3261"
    INDEX 01 00:47:40
  TRACK 34 AUDIO
    TITLE "0:"
    INDEX 01 00:48:51
  TRACK 35 AUDIO
    TITLE "3:cjc044_3262"
    INDEX 01 00:49:41
  TRACK 36 AUDIO
    TITLE "0:"
    INDEX 01 00:50:66
  TRACK 37 AUDIO
    TITLE "4:cjc044_3263"
    INDEX 01 00:51:52
  TRACK 38 AUDIO
    TITLE "0:"
    INDEX 01 00:52:61
  TRACK 39 AUDIO
    TITLE "5:cjc044_3264"
    INDEX 01 00:53:49
  TRACK 40 AUDIO
    TITLE "0:"
    INDEX 01 00:56:45
  TRACK 41 AUDIO
    TITLE "2:cjc044_3265"
    INDEX 01 00:58:32
  TRACK 42 AUDIO
    TITLE "0:"
    INDEX 01 00:59:30
  TRACK 43 AUDIO
    TITLE "3:cjc044_3266"
    INDEX 01 01:00:13
  TRACK 44 AUDIO
    TITLE "0:"
    INDEX 01 01:01:15
  TRACK 45 AUDIO
    TITLE "4:cjc044_3267"
    INDEX 01 01:02:03
  TRACK 46 AUDIO
    TITLE "0:"
    INDEX 01 01:02:73
  TRACK 47 AUDIO
    TITLE "5:cjc044_3268"
    INDEX 01 01:03:59
  TRACK 48 AUDIO
    TITLE "0:"
    INDEX 01 01:07:21
  TRACK 49 AUDIO
    TITLE "2:cjc044_3269"
    INDEX 01 01:09:10
  TRACK 50 AUDIO
    TITLE "0:"
    INDEX 01 01:10:04
  TRACK 51 AUDIO
    TITLE "3:cjc044_3270"
    INDEX 01 01:10:65
  TRACK 52 AUDIO
    TITLE "0:"
    INDEX 01 01:11:64
  TRACK 53 AUDIO
    TITLE "4:cjc044_3271"
    INDEX 01 01:12:52
  TRACK 54 AUDIO
    TITLE "0:"
    INDEX 01 01:13:45
  TRACK 55 AUDIO
    TITLE "5:cjc044_3272"
    INDEX 01 01:14:33
  TRACK 56 AUDIO
    TITLE "0:"
    INDEX 01 01:17:24
  TRACK 57 AUDIO
    TITLE "2:cjc044_3273"
    INDEX 01 01:19:15
  TRACK 58 AUDIO
    TITLE "0:"
    INDEX 01 01:20:18
  TRACK 59 AUDIO
    TITLE "3:cjc044_3274"
    INDEX 01 01:21:08
  TRACK 60 AUDIO
    TITLE "0:"
    INDEX 01 01:22:25
  TRACK 61 AUDIO
    TITLE "4:cjc044_3275"
    INDEX 01 01:23:15
  TRACK 62 AUDIO
    TITLE "0:"
    INDEX 01 01:24:18
  TRACK 63 AUDIO
    TITLE "5:cjc044_3276"
    INDEX 01 01:25:08
  TRACK 64 AUDIO
    TITLE "0:"
    INDEX 01 01:28:37
  TRACK 65 AUDIO
    TITLE "2:cjc044_3277"
    INDEX 01 01:30:22
  TRACK 66 AUDIO
    TITLE "0:"
    INDEX 01 01:31:24
  TRACK 67 AUDIO
    TITLE "3:cjc044_3278"
    INDEX 01 01:32:15
  TRACK 68 AUDIO
    TITLE "0:"
    INDEX 01 01:33:33
  TRACK 69 AUDIO
    TITLE "4:cjc044_3279"
    INDEX 01 01:34:16
  TRACK 70 AUDIO
    TITLE "0:"
    INDEX 01 01:35:22
  TRACK 71 AUDIO
    TITLE "5:cjc044_3280"
    INDEX 01 01:36:07
  TRACK 72 AUDIO
    TITLE "0:"
    INDEX 01 01:39:72
